<svg width="15" height="13" viewBox="0 0 15 13" fill="none" xmlns="http://www.w3.org/2000/svg">
<mask id="path-1-inside-1_520_4350" fill="white">
<path d="M8.03024 2.46683C8.24055 2.18693 8.42568 1.92196 8.63082 1.67112C9.19567 0.980158 9.88386 0.435497 10.7619 0.121091C10.9788 0.0403297 11.2101 -0.000770131 11.4434 1.09265e-05C11.9641 0.00566135 12.4849 -0.00119998 13.0056 0.00243244C13.8083 0.00828467 14.371 0.355987 14.6988 1.04574C14.896 1.46064 15.0028 1.88867 14.9924 2.34474C14.983 2.76287 14.9733 3.18221 14.9942 3.59973C15.032 4.35568 14.8824 5.08438 14.6461 5.79815C14.3066 6.8227 13.9256 7.83312 13.3894 8.78642C12.7651 9.89633 11.911 10.8147 10.8403 11.5652C10.106 12.0802 9.31514 12.4973 8.47583 12.8384C8.21391 12.9479 7.92978 13.003 7.64299 12.9998C7.06896 12.9919 6.49493 12.9919 5.9209 12.9998C5.43721 13.0057 5.00583 12.8644 4.60006 12.6305C4.16954 12.3821 3.84385 12.031 3.50955 11.6833C2.82937 10.9741 2.21386 10.2126 1.6695 9.40696C1.0728 8.5267 0.533353 7.61335 0.184199 6.61525C0.0688196 6.2849 -0.00501573 5.94587 0.000365793 5.59252C0.00919149 5.00487 0.0104831 4.41683 0.000365793 3.82938C-0.00673782 3.41448 0.0903467 3.01693 0.228329 2.6325C0.366012 2.2511 0.634385 1.92309 0.991643 1.69958C1.68586 1.25562 2.43002 0.940201 3.29494 0.957355C3.85741 0.968454 4.42032 0.942421 4.98301 0.973498C6.23023 1.04251 7.23938 1.53451 8.03024 2.46683Z"/>
</mask>
<path d="M8.03024 2.46683C8.24055 2.18693 8.42568 1.92196 8.63082 1.67112C9.19567 0.980158 9.88386 0.435497 10.7619 0.121091C10.9788 0.0403297 11.2101 -0.000770131 11.4434 1.09265e-05C11.9641 0.00566135 12.4849 -0.00119998 13.0056 0.00243244C13.8083 0.00828467 14.371 0.355987 14.6988 1.04574C14.896 1.46064 15.0028 1.88867 14.9924 2.34474C14.983 2.76287 14.9733 3.18221 14.9942 3.59973C15.032 4.35568 14.8824 5.08438 14.6461 5.79815C14.3066 6.8227 13.9256 7.83312 13.3894 8.78642C12.7651 9.89633 11.911 10.8147 10.8403 11.5652C10.106 12.0802 9.31514 12.4973 8.47583 12.8384C8.21391 12.9479 7.92978 13.003 7.64299 12.9998C7.06896 12.9919 6.49493 12.9919 5.9209 12.9998C5.43721 13.0057 5.00583 12.8644 4.60006 12.6305C4.16954 12.3821 3.84385 12.031 3.50955 11.6833C2.82937 10.9741 2.21386 10.2126 1.6695 9.40696C1.0728 8.5267 0.533353 7.61335 0.184199 6.61525C0.0688196 6.2849 -0.00501573 5.94587 0.000365793 5.59252C0.00919149 5.00487 0.0104831 4.41683 0.000365793 3.82938C-0.00673782 3.41448 0.0903467 3.01693 0.228329 2.6325C0.366012 2.2511 0.634385 1.92309 0.991643 1.69958C1.68586 1.25562 2.43002 0.940201 3.29494 0.957355C3.85741 0.968454 4.42032 0.942421 4.98301 0.973498C6.23023 1.04251 7.23938 1.53451 8.03024 2.46683Z" stroke="#FA8AA7" stroke-width="3" mask="url(#path-1-inside-1_520_4350)"/>
</svg>
