<svg width="140" height="86" viewBox="0 0 140 86" fill="none" xmlns="http://www.w3.org/2000/svg">
<path d="M19.1708 8.42234C18.7374 8.42234 18.3329 8.39344 17.9573 8.39344C17.4371 8.39344 16.7726 8.39344 16.0502 8.39344C13.4496 8.42234 7.98843 8.45123 6.48589 6.97758C6.28362 6.77531 6.19693 6.60194 6.19693 6.31299C6.19693 5.56172 6.19693 3.97249 17.6972 3.97249C23.4473 3.97249 25.3255 5.27277 25.8456 5.85067C26.0768 6.08183 26.1924 6.31299 26.2213 6.45747H29.9776C29.9487 5.73509 29.7176 4.66597 28.8218 3.59685C27.0014 1.37192 23.274 0.245014 17.6972 0.245014C9.3754 0.245014 2.49836 0.707336 2.49836 6.31299C2.49836 7.58438 2.96068 8.74018 3.85643 9.60704C6.25472 12.0053 11.0224 12.1498 16.0791 12.1209C16.7726 12.1209 17.3794 12.092 17.8417 12.1209C18.2462 12.1209 18.6796 12.1209 19.142 12.1209C23.7363 12.1787 26.4235 12.5543 26.4235 14.4036C26.4235 15.4439 24.921 16.7152 17.8706 16.7152C13.1318 16.7152 10.4734 16.3974 8.59523 15.5883C6.94821 14.8948 6.51478 14.5192 6.3992 13.9413H2.67173C2.90289 16.6863 4.52102 17.8999 7.15047 19.0269C9.51987 20.0382 12.525 20.4427 17.8706 20.4427C21.5403 20.4427 30.151 20.4427 30.151 14.4036C30.151 8.48013 22.985 8.45123 19.1708 8.42234ZM56.6805 0.187223L46.9428 16.2818L36.9451 0.187223H33.1887V20.4138H36.8873V7.17985L45.1513 20.4138H48.7921L56.7094 7.35322V20.4138H60.4368V0.187223H56.6805ZM67.1826 20.4138V0.187223H63.484V20.4138H67.1826ZM73.916 0.187223H70.2174V20.4138H95.3561V16.7152H73.916V0.187223ZM97.1265 20.4427H124.808V16.7152H100.854V11.1096H118.942V7.38211H100.854V3.97249H124.808V0.245014H97.1265V20.4427Z" fill="#1F2225"/>
<path d="M30.2955 46.7565L23.6496 30.0551H23.6207H19.6332L13.1318 46.7565L6.48589 30.0551H2.49836L10.5601 50.2817H15.7612L21.6558 35.1407L27.6949 50.2817H32.9249L40.7844 30.0551H36.768L30.2955 46.7565ZM47.5254 50.2817V30.0551H43.8269V50.2817H47.5254ZM50.5602 33.7826H63.2741V50.2817H67.0016V33.7826H79.7443V30.0551H50.5602V33.7826ZM106.902 37.3656H86.4447V30.0551H82.7461V50.2817H86.4447V41.0931H106.902V50.2817H110.63V30.0551H106.902V37.3656Z" fill="#1F2225"/>
<path d="M2.49836 80.1784H30.1799V76.451H6.22583V70.8453H24.3142V67.1178H6.22583V63.7082H30.1799V59.9807H2.49836V80.1784ZM59.6878 76.6243L53.0419 59.9229H53.013H49.0255L42.5241 76.6243L35.8782 59.9229H31.8907L39.9524 80.1495H45.1536L51.0482 65.0085L57.0872 80.1495H62.3173L70.1767 59.9229H66.1603L59.6878 76.6243ZM97.3755 67.2334H76.9178V59.9229H73.2192V80.1495H76.9178V70.9609H97.3755V80.1495H101.103V59.9229H97.3755V67.2334ZM118.554 59.9229L104.135 80.1495H108.614L111.504 76.162H130.054L132.915 80.1495H137.509L123.062 59.9229H118.554ZM114.162 72.4345L120.779 63.1592L127.396 72.4345H114.162Z" fill="#1F2225"/>
</svg>
