<svg width="358" height="677" viewBox="0 0 358 677" fill="none" xmlns="http://www.w3.org/2000/svg">
<path d="M54.1787 469.227C58.8039 466.33 63.5313 463.582 68.0163 460.501C73.2439 456.908 78.4974 455.784 83.8597 456.804C89.2219 457.823 94.6311 458.826 99.7959 460.262C110.164 463.14 120.067 466.751 129.008 471.879C143.355 480.107 157.871 488.133 172.277 496.285C183.532 502.655 195.064 508.723 204.406 517.245C205.24 518.063 206.2 518.768 207.267 519.345C218.641 524.953 224.349 535.005 230.084 545.022C233.196 550.46 232.175 553.292 225.492 557.705C220.641 560.906 215.649 563.91 210.701 566.97C209.779 567.547 208.74 568.497 207.887 568.532C198.756 568.919 190.152 575.236 180.762 574.806C171.835 574.411 162.489 575.42 153.287 576.112C143.059 576.875 132.802 577.669 122.52 579.024C110.819 580.568 100.214 578.771 90.4627 575.572C75.5937 570.7 61.5456 564.451 50.2312 554.803C48.9098 553.685 47.2744 552.692 46.3844 551.271C39.8981 540.733 31.7775 531.069 28.4778 518.769C25.628 508.087 25.5102 496.965 32.8506 485.304C34.5824 482.35 37.1722 479.762 40.2798 477.881C44.9838 475.096 49.5623 472.125 54.1787 469.227Z" fill="#004628"/>
<path d="M276.822 491.227C275.725 481.264 275.033 471.704 275.988 462.029C276.542 456.469 275.743 451.066 275.38 445.614C275.257 443.807 274.073 442.284 273.94 440.397C273.553 435.238 272.353 430.238 271.848 425.083C271.187 418.296 270.76 411.431 269.187 404.81C268.53 402.172 267.628 399.614 266.491 397.169C263.987 391.727 262.032 386.022 260.657 380.137C259.479 375.124 257.581 370.344 255.023 365.948C252.285 361.151 249.482 356.398 246.04 352.097C242.618 347.784 238.579 344.021 234.045 340.922C233.129 340.299 232.273 339.887 231.186 340.734C230.27 341.466 229.528 340.83 228.735 340.41C226.612 339.281 226.593 339.305 225.052 341.188C224.657 341.671 224.278 342.166 223.914 342.673C219.927 348.16 219.679 346.163 222.527 353.248C225.761 361.335 228.821 369.487 231.516 377.786C233.141 382.771 234.231 387.971 235.539 393.076C235.688 393.664 235.764 394.271 235.767 394.885C235.809 404.597 238.062 413.826 240.59 423.004C241.517 426.365 241.714 429.909 241.858 433.408C242.106 439.209 242.076 445.025 242.493 450.797C242.756 454.429 243.579 457.988 244.213 461.574C245.721 469.836 245.882 478.189 245.403 486.661C245.142 491.402 245.283 496.152 245.332 500.892C245.378 505.79 245.383 510.682 245.709 515.544C246.131 521.806 245.659 528.055 245.211 534.333C244.943 537.995 245.116 541.666 244.881 545.331C244.286 554.516 243.62 563.701 242.883 572.884C242.549 577.008 241.95 581.124 241.468 585.243C241.399 585.853 241.425 586.494 241.236 587.071C239.305 592.969 238.445 599.088 236.729 605.049C235.111 610.67 233.257 616.29 232.486 622.111C232.299 623.329 232.034 624.536 231.691 625.726C230.098 631.699 228.29 637.642 228.666 643.862C228.679 644.475 228.6 645.091 228.432 645.688C227.625 648.896 228.534 651.16 231.302 652.917C234.431 654.901 237.269 657.329 240.276 659.508C241.608 660.471 242.331 660.36 243.396 659.062C246.466 655.327 249.437 651.545 250.903 646.821C251.446 645.065 252.456 643.444 253.167 641.729C255.194 636.859 257.213 631.986 259.167 627.089C261.93 620.16 264.037 613.036 265.861 605.845C266.425 603.597 266.847 601.321 267.125 599.032C268.179 590.488 269.136 581.941 270.168 573.398C270.35 571.873 270.662 570.358 270.979 568.846C271.362 567.03 271.77 565.236 271.512 563.374C271.19 561.055 272.198 558.827 272.414 556.535C272.569 554.9 271.958 552.913 273.322 551.75C274.463 550.78 276.242 551.215 277.738 551.224C280.668 551.245 283.463 550.236 286.229 549.47C297.581 546.324 308.888 542.975 320.187 539.563C326.215 537.738 331.845 534.938 337.341 531.639C347.291 525.673 357.198 519.614 367.338 513.976C373.135 510.754 378.662 506.974 384.169 503.228C388.907 500.003 393.826 497.063 398.297 493.409C403.497 489.162 408.334 484.595 412.361 479.173C414.221 476.67 416.103 474.183 418.052 471.741C421.004 468.053 422.962 463.822 424.996 459.631C426.002 457.558 425.85 455.366 425.252 453.333C424.438 450.574 423.207 448.098 420.714 446.353C416.822 443.627 413.085 440.68 409.378 437.707C406.443 435.355 403.165 433.728 399.64 432.439C395.584 430.96 391.609 429.281 387.501 427.939C381.771 426.046 375.774 425.659 369.679 426.033C365.605 426.28 361.522 426.58 357.447 426.688C354.274 426.79 351.122 427.513 348.164 428.815C339.891 432.322 332.272 437.081 324.699 441.893C318.688 445.71 313.232 450.357 308.148 455.433C305.724 457.845 303.168 460.137 300.552 462.335C298.38 464.158 296.594 466.295 294.886 468.525C289.859 475.09 284.844 481.663 279.79 488.207C279.027 489.175 278.499 490.33 276.822 491.227Z" fill="#004628"/>
<path d="M34.4574 264.195C33.5997 262.61 32.4817 261.27 31.178 260.263C27.3116 256.9 24.016 252.796 20.8146 248.577C18.6032 245.549 16.8453 242.051 15.6252 238.252C14.5013 234.929 13.5486 231.509 12.6723 228.069C11.5935 223.882 10.9902 219.53 10.8798 215.14C10.6971 207.456 10.6339 199.764 10.6187 192.078C10.5938 187.184 11.6774 182.387 13.7447 178.24C17.315 171.035 22.0024 164.795 27.534 159.883C30.1632 157.526 33.1556 156.388 36.1552 155.471C38.5395 154.734 41.0916 154.442 43.5505 153.943C51.9343 152.249 60.3641 153.335 68.7567 152.834C71.4058 152.749 74.0291 153.543 76.358 155.135C80.6284 157.838 84.9174 160.492 89.5078 162.29C90.2396 162.548 90.9364 162.942 91.5739 163.461C94.5754 166.088 98.2207 167.246 101.152 170.06C102.197 171.068 103.034 170.546 103.176 168.772C103.525 164.513 105.08 160.688 105.814 156.568C106.228 154.23 107.397 152.242 108.713 150.609C110.56 148.271 112.583 146.158 114.753 144.299C119.65 140.215 124.684 136.381 129.678 132.475C132.22 130.46 134.928 128.791 137.757 127.497C141.895 125.659 146.017 123.751 150.1 121.741C152.813 120.41 155.658 119.775 158.494 119.17C161.453 118.54 164.471 118.338 167.446 117.797C170.918 117.161 174.394 116.525 177.824 115.609C182.737 114.304 187.753 113.679 192.781 113.745C199.07 113.829 205.361 113.758 211.652 113.531C212.78 113.432 213.912 113.624 214.98 114.094C216.047 114.565 217.026 115.304 217.856 116.266C219.115 117.813 220.588 119.06 222.205 119.946C223.263 118.83 224.197 117.541 224.98 116.114C228.788 109.693 233.256 103.927 238.271 98.9616C239.751 97.5124 241.146 95.9353 242.448 94.2417C245.257 90.6618 248.366 87.4696 251.724 84.7199C256.427 80.8236 261.106 76.8917 265.794 72.9776C267.675 71.4073 269.718 70.1598 271.868 69.2687C275.912 67.5938 279.834 65.3354 284.095 64.6486C288.685 63.9104 293.212 62.5941 297.902 62.6603C304.067 62.7536 310.231 62.6839 316.395 62.451C321.619 62.2725 326.621 63.7077 331.653 65.1427C335.345 66.1563 338.857 68.0189 342.008 70.6349C342.775 71.1715 343.464 71.8659 344.046 72.6885C346.893 77.3527 349.319 82.338 350.532 88.0233C352.552 97.4052 354.744 106.767 355.896 116.368C356.467 121.136 357.167 125.902 357.089 130.82C356.971 138.191 357.227 145.57 357.282 152.945C357.334 160.106 355.329 166.424 352.015 172.101C351.265 173.348 350.571 174.647 349.939 175.991C348.451 179.072 346.824 182.045 345.067 184.896C340.692 192.37 334.93 197.794 328.764 202.691C327.175 203.95 325.655 205.34 324.12 206.7C324.015 206.783 323.929 206.899 323.872 207.037C323.815 207.175 323.788 207.33 323.795 207.485C323.801 207.641 323.841 207.791 323.91 207.922C323.978 208.052 324.073 208.158 324.185 208.227C328.591 210.63 332.515 214.053 336.552 217.253C338.063 218.403 339.362 219.938 340.364 221.757C341.011 222.92 341.772 223.976 342.63 224.901C346.25 228.9 348.952 233.822 351.844 238.593C353.048 240.603 354.097 242.745 355.34 244.73C358.799 250.205 360.92 256.662 363.901 262.482C364.313 263.277 364.593 264.167 364.725 265.098C365.022 267.303 365.81 269.263 366.498 271.291C368.56 277.201 369.64 283.565 369.672 289.999C369.679 296.903 369.69 303.813 369.907 310.709C370.168 318.601 369.284 326.304 368.227 334.002C367.06 342.495 365.331 350.809 363.665 359.153C363.044 362.188 362.112 365.108 360.892 367.843C359.611 370.74 357.719 373.142 355.419 374.792C354.137 375.754 352.901 376.81 351.718 377.955C348.976 380.486 345.836 382.091 342.611 383.375C336.989 385.611 331.14 386.739 325.349 387.968C321.907 388.699 318.405 389.187 314.954 389.995C313.961 390.176 312.956 390.249 311.952 390.215C303.645 390.309 295.338 390.361 287.038 390.532C284.65 390.576 282.285 389.922 280.13 388.623C276.484 386.504 272.953 384.05 269.316 381.979C264.625 379.305 260.26 375.815 255.406 373.591C254.801 373.361 254.229 373.012 253.71 372.559C251.131 370.023 248.055 368.399 245.499 365.879C242.025 362.44 237.932 360.224 234.471 356.784C233.905 356.194 233.272 356.535 232.996 357.457C231.511 362.439 229.911 367.381 228.581 372.426C226.915 378.729 224.284 384.332 221.525 389.955C219.298 394.498 216.888 398.846 214.463 403.211C212.376 406.965 209.756 410.104 207.373 413.52C207.066 414.03 206.668 414.444 206.209 414.727C203.064 416.266 200.307 418.738 197.064 420.124C191.254 422.612 185.568 425.541 179.838 428.309C174.227 431.016 168.644 433.735 162.864 435.937C155.884 438.606 148.759 440.357 141.697 442.532C140.353 442.913 138.977 443.095 137.597 443.074C128.411 443.178 119.224 443.317 110.042 443.385C105.225 443.535 100.503 441.633 96.6537 437.993C94.8335 436.313 93.1069 434.48 91.4856 432.508C87.8259 427.954 83.5254 424.291 80.0354 419.509C78.0909 416.834 76.052 414.261 74.0887 411.61C73.6547 411.039 73.2982 410.384 73.0331 409.67C70.9679 403.935 69.1786 398.059 68.6529 391.775C68.3378 388.037 67.4257 384.402 67.5213 380.593C67.5432 379.567 67.0622 378.504 66.7873 377.469C66.7531 377.279 66.6868 377.1 66.5928 376.944C66.4989 376.788 66.3794 376.659 66.2425 376.565C66.1055 376.471 65.9542 376.414 65.7986 376.399C65.6431 376.384 65.4869 376.41 65.3405 376.476C60.884 378.055 56.4324 379.639 51.9959 381.282C51.2688 381.533 50.5845 381.945 49.9759 382.498C46.771 385.578 42.928 387.239 39.4434 389.701C35.5507 392.461 31.2012 394.193 26.7506 395.436C21.7369 396.848 16.6059 397.529 11.4604 397.465C4.41518 397.36 -2.63106 397.589 -9.67918 397.651C-11.5641 397.657 -13.4437 397.878 -15.2945 398.311C-17.0278 398.716 -18.7863 398.935 -20.551 398.968C-27.091 399.107 -33.6325 399.116 -40.1684 399.19C-42.0499 399.151 -43.9259 398.909 -45.7755 398.466C-50.7589 397.454 -55.5881 395.7 -60.4076 393.947C-66.4992 391.808 -72.0504 387.741 -76.5197 382.14C-78.2018 379.992 -79.304 377.243 -79.6712 374.281C-80.3588 369.497 -80.694 364.647 -80.6727 359.791C-80.6532 351.788 -80.6961 343.781 -80.9445 335.787C-81.1359 329.869 -80.1178 324.272 -78.8266 318.708C-77.1739 311.671 -74.4499 305.428 -69.901 300.603C-69.3371 299.98 -68.8314 299.279 -68.3934 298.515C-67.0989 296.414 -65.4018 294.754 -63.4569 293.685C-57.7057 290.23 -51.8309 287.132 -46.0551 283.743C-45.8233 283.623 -45.5994 283.481 -45.3852 283.318C-38.4538 277.594 -30.7212 274.576 -22.5596 273.111C-19.3313 272.532 -16.2342 271.351 -13.0715 270.474C-7.43929 268.906 -1.79857 267.39 3.85071 265.926C4.96382 265.679 6.09392 265.566 7.2254 265.589C11.8805 265.501 16.5365 265.484 21.192 265.431C23.8284 265.401 26.4552 265.371 29.0551 264.65C30.6053 264.203 32.2867 264.357 34.4574 264.195Z" fill="#F55B1D"/>
<!-- <path d="M90.0073 671.113H90.5705C90.3788 670.045 89.5146 669.259 88.3179 669.259C86.8788 669.259 85.8542 670.393 85.8542 672.169C85.8542 673.944 86.8788 675.078 88.3179 675.078C89.5185 675.078 90.3827 674.28 90.5705 673.225H90.0073C89.847 673.999 89.1783 674.554 88.3179 674.554C87.2542 674.554 86.3978 673.717 86.4017 672.169C86.3978 670.624 87.2542 669.783 88.3179 669.783C89.1783 669.783 89.8509 670.342 90.0073 671.113ZM93.1984 675.086C94.309 675.09 95.0794 674.194 95.0755 672.896C95.0794 671.59 94.309 670.694 93.1984 670.69C92.0839 670.694 91.3096 671.59 91.3135 672.896C91.3096 674.194 92.0839 675.09 93.1984 675.086ZM91.8453 672.896C91.8453 671.965 92.3263 671.171 93.1984 671.175C94.0666 671.171 94.5437 671.961 94.5437 672.896C94.5437 673.827 94.0666 674.609 93.1984 674.609C92.3224 674.609 91.8453 673.827 91.8453 672.896ZM96.0063 676.596H96.5459V674.234H96.585C96.7532 674.601 97.1091 675.09 97.8834 675.086C98.9236 675.09 99.6354 674.21 99.6354 672.888C99.6354 671.566 98.9236 670.694 97.8756 670.69C97.0895 670.694 96.7571 671.179 96.585 671.543H96.5225V670.753H96.0063V676.596ZM96.5381 672.88C96.5342 671.875 96.9878 671.175 97.813 671.175C98.6538 671.175 99.0996 671.914 99.1035 672.88C99.0996 673.85 98.646 674.605 97.813 674.609C96.9996 674.605 96.5342 673.885 96.5381 672.88ZM100.746 676.596C101.325 676.592 101.716 676.287 101.95 675.657L103.742 670.753H103.171L101.927 674.312H101.888L100.652 670.753H100.073L101.638 675.039L101.489 675.454C101.262 676.075 100.988 676.111 100.715 676.111C100.629 676.111 100.507 676.107 100.457 676.103L100.449 676.58C100.519 676.588 100.633 676.592 100.746 676.596ZM104.547 675H105.087V672.27C105.083 671.656 105.56 671.203 106.213 671.207C106.35 671.203 106.483 671.226 106.526 671.238V670.698C106.459 670.694 106.338 670.69 106.252 670.69C105.728 670.69 105.271 670.976 105.102 671.41H105.063V670.753H104.547V675ZM107.23 675H107.762V670.753H107.23V675ZM107.113 669.658C107.113 669.865 107.289 670.03 107.504 670.026C107.715 670.03 107.891 669.865 107.895 669.658C107.891 669.451 107.715 669.287 107.504 669.283C107.289 669.287 107.113 669.451 107.113 669.658ZM110.554 676.682C111.579 676.682 112.325 676.189 112.329 675.109V670.753H111.805V671.543H111.758C111.586 671.179 111.246 670.694 110.46 670.69C109.412 670.694 108.696 671.543 108.7 672.841C108.696 674.147 109.435 674.953 110.452 674.953C111.223 674.953 111.582 674.507 111.751 674.14H111.798V675.078C111.794 675.853 111.328 676.212 110.554 676.212C109.944 676.212 109.494 675.989 109.396 675.532H108.833C108.931 676.279 109.619 676.682 110.554 676.682ZM109.24 672.857C109.236 671.914 109.686 671.175 110.523 671.175C111.344 671.175 111.805 671.875 111.805 672.857C111.805 673.862 111.332 674.472 110.523 674.476C109.694 674.472 109.236 673.811 109.24 672.857ZM114.019 672.364C114.015 671.629 114.504 671.179 115.176 671.183C115.822 671.179 116.232 671.602 116.232 672.294V675H116.764V672.255C116.768 671.234 116.181 670.698 115.317 670.698C114.672 670.698 114.261 670.98 114.058 671.426H114.019V669.337H113.479V675H114.019V672.364ZM119.619 670.753H118.727V669.736H118.188V670.753H117.554V671.207H118.188V673.999C118.188 674.703 118.747 675.063 119.298 675.063C119.478 675.063 119.611 675.047 119.697 675.039V674.539L119.345 674.554C119.024 674.55 118.723 674.402 118.727 673.866V671.207H119.619V670.753ZM126.155 673.478C125.77 673.478 125.471 673.361 125.258 673.126C125.044 672.891 124.937 672.565 124.937 672.149C124.937 671.722 125.047 671.393 125.266 671.164C125.49 670.929 125.797 670.811 126.187 670.811C126.315 670.811 126.438 670.825 126.555 670.851C126.678 670.873 126.798 670.91 126.916 670.963L126.779 671.364C126.678 671.321 126.576 671.289 126.475 671.268C126.379 671.246 126.28 671.236 126.179 671.236C125.944 671.236 125.765 671.313 125.642 671.468C125.525 671.618 125.466 671.844 125.466 672.149C125.466 672.437 125.525 672.661 125.642 672.822C125.76 672.976 125.93 673.054 126.155 673.054C126.261 673.054 126.374 673.04 126.491 673.014C126.614 672.982 126.742 672.939 126.876 672.886V673.318C126.747 673.371 126.625 673.412 126.507 673.438C126.39 673.465 126.272 673.478 126.155 673.478ZM125.938 675.44C125.485 675.44 125.057 675.355 124.657 675.184C124.257 675.013 123.904 674.778 123.6 674.479C123.301 674.175 123.066 673.823 122.895 673.422C122.724 673.022 122.639 672.595 122.639 672.141C122.639 671.682 122.724 671.254 122.895 670.859C123.066 670.459 123.301 670.109 123.6 669.81C123.904 669.506 124.257 669.268 124.657 669.097C125.057 668.926 125.485 668.841 125.938 668.841C126.398 668.841 126.825 668.926 127.22 669.097C127.62 669.268 127.97 669.506 128.269 669.81C128.573 670.109 128.811 670.459 128.982 670.859C129.153 671.254 129.238 671.682 129.238 672.141C129.238 672.595 129.153 673.022 128.982 673.422C128.811 673.823 128.573 674.175 128.269 674.479C127.97 674.778 127.62 675.013 127.22 675.184C126.825 675.355 126.398 675.44 125.938 675.44ZM125.938 674.992C126.334 674.992 126.702 674.92 127.044 674.776C127.391 674.626 127.695 674.421 127.957 674.159C128.218 673.897 128.421 673.596 128.565 673.254C128.715 672.907 128.79 672.536 128.79 672.141C128.79 671.746 128.715 671.377 128.565 671.036C128.421 670.688 128.218 670.384 127.957 670.123C127.695 669.861 127.391 669.658 127.044 669.514C126.702 669.364 126.334 669.29 125.938 669.29C125.543 669.29 125.172 669.364 124.825 669.514C124.483 669.658 124.182 669.861 123.92 670.123C123.659 670.384 123.453 670.688 123.303 671.036C123.159 671.377 123.087 671.746 123.087 672.141C123.087 672.536 123.159 672.907 123.303 673.254C123.453 673.596 123.659 673.897 123.92 674.159C124.182 674.421 124.483 674.626 124.825 674.776C125.172 674.92 125.543 674.992 125.938 674.992ZM132.547 675H135.785V674.499H133.103V669.337H132.547V675ZM136.708 675H137.24V670.753H136.708V675ZM136.591 669.658C136.591 669.865 136.767 670.03 136.982 670.026C137.193 670.03 137.369 669.865 137.373 669.658C137.369 669.451 137.193 669.287 136.982 669.283C136.767 669.287 136.591 669.451 136.591 669.658ZM138.39 675H138.93V673.369L139.407 672.92L141.049 675H141.722L139.806 672.575L141.612 670.753H140.94L138.984 672.724H138.93V669.337H138.39V675ZM143.935 675.086C144.792 675.09 145.394 674.625 145.586 674.038H145.015C144.862 674.308 144.518 674.609 143.935 674.609C143.091 674.609 142.543 673.999 142.52 673.037H145.672V672.787C145.668 671.344 144.78 670.694 143.857 670.69C142.75 670.694 141.984 671.613 141.988 672.904C141.984 674.194 142.735 675.09 143.935 675.086ZM142.524 672.575C142.57 671.813 143.098 671.171 143.865 671.175C144.608 671.171 145.124 671.782 145.124 672.575H142.524ZM147.134 669.337H146.595V675H147.134V669.337ZM148.284 675H148.816V670.753H148.284V675ZM148.167 669.658C148.167 669.865 148.343 670.03 148.558 670.026C148.769 670.03 148.945 669.865 148.949 669.658C148.945 669.451 148.769 669.287 148.558 669.283C148.343 669.287 148.167 669.451 148.167 669.658ZM151.639 675.086C152.75 675.09 153.52 674.194 153.516 672.896C153.52 671.59 152.75 670.694 151.639 670.69C150.525 670.694 149.75 671.59 149.754 672.896C149.75 674.194 150.525 675.09 151.639 675.086ZM150.286 672.896C150.286 671.965 150.767 671.171 151.639 671.175C152.507 671.171 152.985 671.961 152.985 672.896C152.985 673.827 152.507 674.609 151.639 674.609C150.763 674.609 150.286 673.827 150.286 672.896ZM154.987 672.364C154.983 671.629 155.46 671.179 156.121 671.183C156.762 671.179 157.169 671.609 157.169 672.294V675H157.701V672.255C157.701 671.242 157.122 670.698 156.262 670.698C155.636 670.698 155.214 670.984 155.01 671.426H154.963V670.753H154.447V675H154.987V672.364ZM160.876 675H164.247V674.499H161.432V672.411H164.02V671.918H161.432V669.838H164.193V669.337H160.876V675ZM166.218 675H166.766L167.751 671.566H167.806L168.799 675H169.339L170.622 670.753H170.058L169.073 674.194H169.042L168.064 670.753H167.501L166.523 674.202H166.484L165.499 670.753H164.936L166.218 675ZM171.967 672.364C171.963 671.629 172.452 671.179 173.124 671.183C173.77 671.179 174.18 671.602 174.18 672.294V675H174.712V672.255C174.716 671.234 174.129 670.698 173.265 670.698C172.62 670.698 172.209 670.98 172.006 671.426H171.967V669.337H171.427V675H171.967V672.364ZM175.651 673.811C175.647 674.628 176.276 675.098 177.051 675.094C177.762 675.098 178.185 674.707 178.357 674.343H178.388V675H178.92V672.13C178.92 670.964 178.021 670.694 177.387 670.69C176.503 670.694 175.858 671.136 175.768 671.809H176.323C176.425 671.422 176.8 671.164 177.356 671.168C178.025 671.164 178.392 671.512 178.388 672.083V672.482C178.185 672.489 177.5 672.536 177.215 672.552C176.347 672.622 175.647 672.947 175.651 673.811ZM176.183 673.835C176.183 673.346 176.542 673.056 177.293 673.006C177.504 672.994 178.177 672.943 178.388 672.923V673.381C178.392 674.058 177.907 674.617 177.129 674.617C176.585 674.617 176.183 674.335 176.183 673.835ZM183.793 669.337H183.214L181.861 670.229V670.8L183.198 669.916H183.23V675H183.793V669.337ZM187.172 669.337H186.593L185.24 670.229V670.8L186.577 669.916H186.608V675H187.172V669.337ZM190.472 670.753H189.581V669.736H189.041V670.753H188.407V671.207H189.041V673.999C189.041 674.703 189.6 675.063 190.151 675.063C190.331 675.063 190.464 675.047 190.55 675.039V674.539L190.198 674.554C189.878 674.55 189.577 674.402 189.581 673.866V671.207H190.472V670.753ZM192.06 672.364C192.056 671.629 192.545 671.179 193.217 671.183C193.863 671.179 194.273 671.602 194.273 672.294V675H194.805V672.255C194.809 671.234 194.222 670.698 193.358 670.698C192.713 670.698 192.302 670.98 192.099 671.426H192.06V669.337H191.52V675H192.06V672.364ZM196.362 675.039C196.588 675.043 196.776 674.851 196.776 674.625C196.776 674.394 196.588 674.206 196.362 674.202C196.131 674.206 195.939 674.394 195.939 674.625C195.939 674.851 196.131 675.043 196.362 675.039ZM199.999 675L200.593 673.318H202.947L203.542 675H204.128L202.071 669.337H201.469L199.412 675H199.999ZM200.769 672.826L201.75 670.057H201.79L202.771 672.826H200.769ZM205.387 669.337H204.848V675H205.387V669.337ZM207.069 669.337H206.529V675H207.069V669.337ZM210.244 675H210.8V672.732H212.106C212.172 672.732 212.239 672.728 212.301 672.724L213.529 675H214.171L212.872 672.618C213.58 672.384 213.94 671.801 213.936 671.042C213.94 670.045 213.318 669.337 212.098 669.337H210.244V675ZM210.8 672.223V669.838H212.075C212.966 669.834 213.389 670.315 213.389 671.042C213.389 671.77 212.966 672.223 212.082 672.223H210.8ZM214.953 675H215.485V670.753H214.953V675ZM214.836 669.658C214.836 669.865 215.012 670.03 215.227 670.026C215.438 670.03 215.614 669.865 215.618 669.658C215.614 669.451 215.438 669.287 215.227 669.283C215.012 669.287 214.836 669.451 214.836 669.658ZM218.277 676.682C219.302 676.682 220.048 676.189 220.052 675.109V670.753H219.528V671.543H219.481C219.309 671.179 218.969 670.694 218.183 670.69C217.135 670.694 216.419 671.543 216.423 672.841C216.419 674.147 217.158 674.953 218.175 674.953C218.946 674.953 219.305 674.507 219.474 674.14H219.521V675.078C219.517 675.853 219.051 676.212 218.277 676.212C217.667 676.212 217.217 675.989 217.119 675.532H216.556C216.654 676.279 217.342 676.682 218.277 676.682ZM216.963 672.857C216.959 671.914 217.409 671.175 218.246 671.175C219.067 671.175 219.528 671.875 219.528 672.857C219.528 673.862 219.055 674.472 218.246 674.476C217.417 674.472 216.959 673.811 216.963 672.857ZM221.742 672.364C221.738 671.629 222.227 671.179 222.899 671.183C223.545 671.179 223.955 671.602 223.955 672.294V675H224.487V672.255C224.491 671.234 223.904 670.698 223.04 670.698C222.395 670.698 221.984 670.98 221.781 671.426H221.742V669.337H221.202V675H221.742V672.364ZM227.342 670.753H226.45V669.736H225.911V670.753H225.277V671.207H225.911V673.999C225.911 674.703 226.47 675.063 227.021 675.063C227.201 675.063 227.334 675.047 227.42 675.039V674.539L227.068 674.554C226.747 674.55 226.446 674.402 226.45 673.866V671.207H227.342V670.753ZM230.58 671.809H231.112C231.014 671.148 230.482 670.694 229.649 670.69C228.758 670.69 228.151 671.199 228.147 671.903C228.151 672.466 228.527 672.861 229.242 673.029L229.892 673.185C230.392 673.303 230.623 673.537 230.627 673.874C230.623 674.327 230.208 674.617 229.571 674.617C228.992 674.617 228.648 674.382 228.562 673.921H228.007C228.116 674.672 228.671 675.09 229.579 675.086C230.58 675.09 231.17 674.566 231.166 673.842C231.17 673.271 230.811 672.892 230.095 672.716L229.446 672.56C228.93 672.431 228.683 672.204 228.687 671.879C228.683 671.469 229.082 671.156 229.649 671.16C230.173 671.16 230.486 671.41 230.58 671.809ZM234.139 675H234.694V672.732H236C236.067 672.732 236.133 672.728 236.196 672.724L237.423 675H238.065L236.767 672.618C237.474 672.384 237.834 671.801 237.83 671.042C237.834 670.045 237.212 669.337 235.992 669.337H234.139V675ZM234.694 672.223V669.838H235.969C236.86 669.834 237.283 670.315 237.283 671.042C237.283 671.77 236.86 672.223 235.977 672.223H234.694ZM240.529 675.086C241.385 675.09 241.987 674.625 242.179 674.038H241.608C241.455 674.308 241.111 674.609 240.529 674.609C239.684 674.609 239.136 673.999 239.113 673.037H242.265V672.787C242.261 671.344 241.373 670.694 240.45 670.69C239.344 670.694 238.577 671.613 238.581 672.904C238.577 674.194 239.328 675.09 240.529 675.086ZM239.117 672.575C239.164 671.813 239.692 671.171 240.458 671.175C241.201 671.171 241.717 671.782 241.717 672.575H239.117ZM245.55 671.809H246.082C245.984 671.148 245.452 670.694 244.619 670.69C243.728 670.69 243.121 671.199 243.117 671.903C243.121 672.466 243.497 672.861 244.212 673.029L244.862 673.185C245.362 673.303 245.593 673.537 245.597 673.874C245.593 674.327 245.178 674.617 244.541 674.617C243.962 674.617 243.618 674.382 243.532 673.921H242.977C243.086 674.672 243.641 675.09 244.549 675.086C245.55 675.09 246.14 674.566 246.136 673.842C246.14 673.271 245.781 672.892 245.065 672.716L244.416 672.56C243.9 672.431 243.653 672.204 243.657 671.879C243.653 671.469 244.052 671.156 244.619 671.16C245.143 671.16 245.456 671.41 245.55 671.809ZM248.811 675.086C249.668 675.09 250.27 674.625 250.462 674.038H249.891C249.738 674.308 249.394 674.609 248.811 674.609C247.967 674.609 247.419 673.999 247.396 673.037H250.548V672.787C250.544 671.344 249.656 670.694 248.733 670.69C247.626 670.694 246.86 671.613 246.864 672.904C246.86 674.194 247.611 675.09 248.811 675.086ZM247.4 672.575C247.447 671.813 247.974 671.171 248.741 671.175C249.484 671.171 250 671.782 250 672.575H247.4ZM251.471 675H252.01V672.27C252.006 671.656 252.483 671.203 253.137 671.207C253.273 671.203 253.406 671.226 253.449 671.238V670.698C253.383 670.694 253.262 670.69 253.176 670.69C252.652 670.69 252.194 670.976 252.026 671.41H251.987V670.753H251.471V675ZM257.61 670.753H257.039L255.796 674.304H255.757L254.521 670.753H253.942L255.491 675H256.062L257.61 670.753ZM259.996 675.086C260.852 675.09 261.455 674.625 261.646 674.038H261.075C260.923 674.308 260.579 674.609 259.996 674.609C259.151 674.609 258.604 673.999 258.58 673.037H261.732V672.787C261.728 671.344 260.841 670.694 259.918 670.69C258.811 670.694 258.044 671.613 258.048 672.904C258.044 674.194 258.795 675.09 259.996 675.086ZM258.584 672.575C258.631 671.813 259.159 671.171 259.925 671.175C260.668 671.171 261.185 671.782 261.185 672.575H258.584ZM264.196 675.086C264.974 675.09 265.322 674.601 265.494 674.234H265.549V675H266.073V669.337H265.533V671.543H265.494C265.326 671.179 264.99 670.694 264.204 670.69C263.16 670.694 262.44 671.57 262.444 672.888C262.44 674.21 263.156 675.09 264.196 675.086ZM262.984 672.88C262.98 671.914 263.429 671.175 264.266 671.175C265.088 671.175 265.549 671.875 265.549 672.88C265.549 673.885 265.08 674.605 264.266 674.609C263.437 674.605 262.98 673.85 262.984 672.88ZM267.731 675.039C267.958 675.043 268.146 674.851 268.146 674.625C268.146 674.394 267.958 674.206 267.731 674.202C267.5 674.206 267.309 674.394 267.309 674.625C267.309 674.851 267.5 675.043 267.731 675.039Z" fill="#A5A5A5"/> -->
<path d="M45.1708 29.4223C44.7374 29.4223 44.3329 29.3934 43.9573 29.3934C43.4371 29.3934 42.7726 29.3934 42.0502 29.3934C39.4496 29.4223 33.9884 29.4512 32.4859 27.9776C32.2836 27.7753 32.1969 27.6019 32.1969 27.313C32.1969 26.5617 32.1969 24.9725 43.6972 24.9725C49.4473 24.9725 51.3255 26.2728 51.8456 26.8507C52.0768 27.0818 52.1924 27.313 52.2213 27.4575H55.9776C55.9487 26.7351 55.7176 25.666 54.8218 24.5968C53.0014 22.3719 49.274 21.245 43.6972 21.245C35.3754 21.245 28.4984 21.7073 28.4984 27.313C28.4984 28.5844 28.9607 29.7402 29.8564 30.607C32.2547 33.0053 37.0224 33.1498 42.0791 33.1209C42.7726 33.1209 43.3794 33.092 43.8417 33.1209C44.2462 33.1209 44.6796 33.1209 45.142 33.1209C49.7363 33.1787 52.4235 33.5543 52.4235 35.4036C52.4235 36.4439 50.921 37.7152 43.8706 37.7152C39.1318 37.7152 36.4734 37.3974 34.5952 36.5883C32.9482 35.8948 32.5148 35.5192 32.3992 34.9413H28.6717C28.9029 37.6863 30.521 38.8999 33.1505 40.0269C35.5199 41.0382 38.525 41.4427 43.8706 41.4427C47.5403 41.4427 56.151 41.4427 56.151 35.4036C56.151 29.4801 48.985 29.4512 45.1708 29.4223ZM82.6805 21.1872L72.9428 37.2818L62.9451 21.1872H59.1887V41.4138H62.8873V28.1798L71.1513 41.4138H74.7921L82.7094 28.3532V41.4138H86.4368V21.1872H82.6805ZM93.1826 41.4138V21.1872H89.484V41.4138H93.1826ZM99.916 21.1872H96.2174V41.4138H121.356V37.7152H99.916V21.1872ZM123.127 41.4427H150.808V37.7152H126.854V32.1096H144.942V28.3821H126.854V24.9725H150.808V21.245H123.127V41.4427Z" fill="#1F2225"/>
<path d="M56.2955 67.7565L49.6496 51.0551H49.6207H45.6332L39.1318 67.7565L32.4859 51.0551H28.4984L36.5601 71.2817H41.7612L47.6558 56.1407L53.6949 71.2817H58.9249L66.7844 51.0551H62.768L56.2955 67.7565ZM73.5254 71.2817V51.0551H69.8269V71.2817H73.5254ZM76.5602 54.7826H89.2741V71.2817H93.0016V54.7826H105.744V51.0551H76.5602V54.7826ZM132.902 58.3656H112.445V51.0551H108.746V71.2817H112.445V62.0931H132.902V71.2817H136.63V51.0551H132.902V58.3656Z" fill="#1F2225"/>
<path d="M28.4984 101.178H56.1799V97.451H32.2258V91.8453H50.3142V88.1178H32.2258V84.7082H56.1799V80.9807H28.4984V101.178ZM85.6878 97.6243L79.0419 80.9229H79.013H75.0255L68.5241 97.6243L61.8782 80.9229H57.8907L65.9524 101.15H71.1536L77.0482 86.0085L83.0872 101.15H88.3173L96.1767 80.9229H92.1603L85.6878 97.6243ZM123.376 88.2334H102.918V80.9229H99.2192V101.15H102.918V91.9609H123.376V101.15H127.103V80.9229H123.376V88.2334ZM144.554 80.9229L130.135 101.15H134.614L137.504 97.162H156.054L158.915 101.15H163.509L149.062 80.9229H144.554ZM140.162 93.4345L146.779 84.1592L153.396 93.4345H140.162Z" fill="#1F2225"/>
<path d="M29.2781 13.1661L29.3811 13.9695H33.9437V13.1661H30.5449C31.9662 11.889 33.8201 10.3544 33.8201 8.77863C33.8201 7.38823 32.8725 6.4098 31.5233 6.4098C30.5655 6.4098 29.5974 7.05865 29.1957 7.97528L30.0093 8.33576C30.2874 7.6869 30.9157 7.23374 31.5233 7.23374C32.3473 7.23374 32.9137 7.87229 32.9137 8.77863C32.9137 10.0866 30.7715 11.7345 29.2781 13.1661ZM37.1852 13.2382C36.1038 13.2382 35.3623 12.0023 35.3623 10.2308C35.3623 8.45935 36.1038 7.23374 37.1852 7.23374C38.2564 7.23374 38.9979 8.45935 38.9979 10.2308C38.9979 12.0023 38.2564 13.2382 37.1852 13.2382ZM34.4559 10.2308C34.4559 12.4658 35.5889 14.0312 37.1852 14.0312C38.7816 14.0312 39.9042 12.4658 39.9042 10.2308C39.9042 8.00618 38.7816 6.4304 37.1852 6.4304C35.5889 6.4304 34.4559 8.00618 34.4559 10.2308ZM40.5237 13.1661L40.6267 13.9695H45.1893V13.1661H41.7905C43.2118 11.889 45.0657 10.3544 45.0657 8.77863C45.0657 7.38823 44.1181 6.4098 42.7689 6.4098C41.8111 6.4098 40.843 7.05865 40.4413 7.97528L41.2549 8.33576C41.533 7.6869 42.1613 7.23374 42.7689 7.23374C43.5929 7.23374 44.1593 7.87229 44.1593 8.77863C44.1593 10.0866 42.0171 11.7345 40.5237 13.1661ZM49.5844 10.1072C50.1817 9.70556 50.5319 9.03611 50.5319 8.46965C50.5319 7.27494 49.5741 6.4407 48.2352 6.4407C46.8757 6.4407 45.9281 7.28523 45.9281 8.50055H46.8345C46.8345 7.759 47.4112 7.24404 48.2352 7.24404C49.0591 7.24404 49.6359 7.759 49.6359 8.49025C49.6359 9.2009 49.0385 9.70556 48.194 9.70556H47.6481V10.4986H48.194C49.1003 10.4986 49.7491 11.0445 49.7491 11.8272C49.7491 12.6408 49.1003 13.2176 48.1734 13.2176C47.2567 13.2176 46.6182 12.6408 46.6182 11.8272H45.7118C45.7118 13.1146 46.7315 14.0209 48.1734 14.0209C49.6256 14.0209 50.6349 13.1249 50.6349 11.8581C50.6349 11.2298 50.2538 10.5089 49.5844 10.1072ZM57.6213 5.64765V6.80117H55.1289V7.55301H57.6213V8.52114H55.1289V9.28329H57.6213V12.3731H58.5585V5.64765H57.6213ZM51.5653 11.0651H52.2657C53.6046 11.0651 54.8302 11.0033 56.2515 10.7458L56.1588 9.96304C54.8611 10.1999 53.7179 10.272 52.5129 10.2823V6.28621H51.5653V11.0651ZM52.6982 14.5462H58.7851V13.7738H53.6355V11.786H52.6982V14.5462ZM68.0105 5.63735V14.7522H68.9478V5.63735H68.0105ZM61.8104 9.52017C61.8104 11.4667 62.7785 12.7129 64.138 12.7129C65.4872 12.7129 66.4656 11.4667 66.4656 9.52017C66.4656 7.56331 65.4872 6.3377 64.138 6.3377C62.7785 6.3377 61.8104 7.56331 61.8104 9.52017ZM62.7167 9.52017C62.7167 8.07828 63.3038 7.18224 64.138 7.18224C64.9722 7.18224 65.5593 8.07828 65.5593 9.52017C65.5593 10.9621 64.9722 11.8684 64.138 11.8684C63.3038 11.8684 62.7167 10.9621 62.7167 9.52017ZM76.1484 5.65795V14.7419H77.096V10.2617H78.4452V9.46868H77.096V5.65795H76.1484ZM69.938 12.2701L70.0719 13.0528C71.6374 13.0528 73.7487 13.0528 75.6953 12.682L75.6232 12.0023C74.8816 12.1053 74.0783 12.1671 73.2852 12.2083V11.3122C74.3049 11.1681 74.9743 10.5501 74.9743 9.66436C74.9743 8.64474 74.0886 7.97528 72.8115 7.97528C71.5344 7.97528 70.6486 8.64474 70.6486 9.66436C70.6486 10.5501 71.3181 11.1681 72.3377 11.3122V12.2392C71.4726 12.2701 70.6486 12.2701 69.938 12.2701ZM70.1028 7.48092H75.5099V6.72907H73.2852V5.67855H72.3377V6.72907H70.1028V7.48092ZM71.5447 9.66436C71.5447 9.06701 72.0493 8.69623 72.8115 8.69623C73.5736 8.69623 74.0783 9.06701 74.0783 9.66436C74.0783 10.2514 73.5736 10.6222 72.8115 10.6222C72.0493 10.6222 71.5447 10.2514 71.5447 9.66436ZM87.3204 5.64765V9.25239H86.1463V5.84334H85.2709V14.2681H86.1463V10.0351H87.3204V14.7316H88.2164V5.64765H87.3204ZM80.8113 12.5379H81.4086C82.7166 12.5379 83.6436 12.4967 84.7456 12.2804L84.6426 11.5079C83.6951 11.6933 82.8505 11.7448 81.7382 11.7551V7.51182H84.1688V6.74967H80.8113V12.5379ZM89.0419 10.0866V10.8488H97.2504V10.0866H93.6045V9.1185H96.2926V8.35636H90.9988V6.82177H96.2308V6.06992H90.0718V9.1185H92.6672V10.0866H89.0419ZM90.01 13.094C90.01 14.1445 91.1841 14.7316 93.1307 14.7316C95.067 14.7316 96.2514 14.1445 96.2514 13.094C96.2514 12.0435 95.067 11.4461 93.1307 11.4461C91.1841 11.4461 90.01 12.0435 90.01 13.094ZM90.9576 13.094C90.9576 12.507 91.7609 12.1774 93.1307 12.1774C94.5005 12.1774 95.2935 12.507 95.2935 13.094C95.2935 13.6914 94.5005 14.0106 93.1307 14.0106C91.7609 14.0106 90.9576 13.6914 90.9576 13.094ZM104.4 5.64765V14.7316H105.296V5.64765H104.4ZM97.4373 12.2495L98.014 12.9498C98.8998 12.3937 99.5074 11.374 99.8267 10.1793C100.146 11.2813 100.743 12.2083 101.598 12.7335L102.165 12.0435C100.908 11.3122 100.28 9.74676 100.28 8.18127V7.45002H101.835V6.67758H97.7051V7.45002H99.3632V8.18127C99.3632 9.81885 98.7144 11.4667 97.4373 12.2495ZM101.155 9.65406H102.577V14.2784H103.452V5.85364H102.577V8.88162H101.155V9.65406Z" fill="#1F2225"/>
</svg>
