<svg width="358" height="616" viewBox="0 0 358 616" fill="none" xmlns="http://www.w3.org/2000/svg">
<path d="M54.1787 408.227C58.8039 405.33 63.5313 402.582 68.0163 399.501C73.2439 395.908 78.4974 394.784 83.8597 395.804C89.2219 396.823 94.6311 397.826 99.7959 399.262C110.164 402.14 120.067 405.751 129.008 410.879C143.355 419.107 157.871 427.133 172.277 435.285C183.532 441.655 195.064 447.723 204.406 456.245C205.24 457.063 206.2 457.768 207.267 458.345C218.641 463.953 224.349 474.005 230.084 484.022C233.196 489.46 232.175 492.292 225.492 496.705C220.641 499.906 215.649 502.91 210.701 505.97C209.779 506.547 208.74 507.497 207.887 507.532C198.756 507.919 190.152 514.236 180.762 513.806C171.835 513.411 162.489 514.42 153.287 515.112C143.059 515.875 132.802 516.669 122.52 518.024C110.819 519.568 100.214 517.771 90.4627 514.572C75.5936 509.7 61.5456 503.451 50.2312 493.803C48.9098 492.685 47.2744 491.692 46.3844 490.271C39.8981 479.733 31.7775 470.069 28.4778 457.769C25.628 447.087 25.5102 435.965 32.8506 424.304C34.5824 421.35 37.1722 418.762 40.2798 416.881C44.9838 414.096 49.5623 411.125 54.1787 408.227Z" fill="#004628"/>
<path d="M276.822 430.227C275.725 420.264 275.033 410.704 275.988 401.029C276.542 395.469 275.743 390.066 275.38 384.614C275.257 382.807 274.073 381.284 273.94 379.397C273.553 374.238 272.353 369.238 271.848 364.083C271.187 357.296 270.76 350.431 269.187 343.81C268.53 341.172 267.628 338.614 266.491 336.169C263.987 330.727 262.032 325.022 260.657 319.137C259.479 314.124 257.581 309.344 255.023 304.948C252.285 300.151 249.482 295.398 246.04 291.097C242.618 286.784 238.579 283.021 234.045 279.922C233.129 279.299 232.273 278.887 231.186 279.734C230.27 280.466 229.528 279.83 228.735 279.41C226.612 278.281 226.593 278.305 225.052 280.188C224.657 280.671 224.278 281.166 223.914 281.673C219.927 287.16 219.679 285.163 222.527 292.248C225.761 300.335 228.821 308.487 231.516 316.786C233.141 321.771 234.231 326.971 235.539 332.076C235.688 332.664 235.764 333.271 235.767 333.885C235.809 343.597 238.062 352.826 240.59 362.004C241.517 365.365 241.714 368.909 241.858 372.408C242.106 378.209 242.076 384.025 242.493 389.797C242.756 393.429 243.579 396.988 244.213 400.574C245.721 408.836 245.882 417.189 245.403 425.661C245.142 430.402 245.283 435.152 245.332 439.892C245.378 444.79 245.383 449.682 245.709 454.544C246.131 460.806 245.659 467.055 245.211 473.333C244.943 476.995 245.116 480.666 244.881 484.331C244.286 493.516 243.62 502.701 242.883 511.884C242.549 516.008 241.95 520.124 241.468 524.243C241.399 524.853 241.425 525.494 241.236 526.071C239.305 531.969 238.445 538.088 236.729 544.049C235.111 549.67 233.257 555.29 232.486 561.111C232.299 562.329 232.034 563.536 231.691 564.726C230.098 570.699 228.29 576.642 228.666 582.862C228.679 583.475 228.6 584.091 228.432 584.688C227.625 587.896 228.534 590.16 231.302 591.917C234.431 593.901 237.269 596.329 240.276 598.508C241.608 599.471 242.331 599.36 243.396 598.062C246.466 594.327 249.437 590.545 250.903 585.821C251.446 584.065 252.456 582.444 253.167 580.729C255.194 575.859 257.213 570.986 259.167 566.089C261.93 559.16 264.037 552.036 265.861 544.845C266.425 542.597 266.847 540.321 267.125 538.032C268.179 529.488 269.136 520.941 270.168 512.398C270.35 510.873 270.662 509.358 270.979 507.846C271.362 506.03 271.77 504.236 271.512 502.374C271.19 500.055 272.198 497.827 272.414 495.535C272.569 493.9 271.958 491.913 273.322 490.75C274.463 489.78 276.242 490.215 277.738 490.224C280.668 490.245 283.463 489.236 286.229 488.47C297.581 485.323 308.888 481.975 320.187 478.563C326.215 476.738 331.845 473.938 337.341 470.639C347.291 464.673 357.198 458.614 367.338 452.976C373.135 449.754 378.662 445.974 384.169 442.228C388.907 439.003 393.826 436.063 398.297 432.409C403.497 428.162 408.334 423.595 412.361 418.173C414.221 415.67 416.103 413.183 418.052 410.741C421.004 407.053 422.962 402.822 424.996 398.631C426.002 396.558 425.85 394.366 425.252 392.333C424.438 389.574 423.207 387.098 420.714 385.353C416.822 382.627 413.085 379.68 409.378 376.707C406.443 374.355 403.165 372.728 399.64 371.439C395.584 369.96 391.609 368.281 387.501 366.939C381.771 365.046 375.774 364.659 369.679 365.033C365.605 365.28 361.522 365.58 357.447 365.688C354.274 365.79 351.122 366.513 348.164 367.815C339.891 371.322 332.272 376.081 324.699 380.893C318.688 384.71 313.232 389.357 308.148 394.433C305.724 396.845 303.168 399.137 300.552 401.335C298.38 403.158 296.594 405.295 294.886 407.525C289.859 414.09 284.844 420.663 279.79 427.207C279.027 428.175 278.499 429.33 276.822 430.227Z" fill="#004628"/>
<path d="M34.4574 203.195C33.5997 201.61 32.4817 200.27 31.178 199.263C27.3116 195.9 24.016 191.796 20.8147 187.577C18.6032 184.549 16.8453 181.051 15.6252 177.252C14.5013 173.929 13.5486 170.509 12.6723 167.069C11.5935 162.882 10.9902 158.53 10.8797 154.14C10.6971 146.456 10.6339 138.764 10.6187 131.078C10.5938 126.184 11.6773 121.387 13.7447 117.24C17.315 110.035 22.0024 103.795 27.534 98.883C30.1632 96.5259 33.1556 95.388 36.1552 94.4708C38.5396 93.7337 41.0916 93.4423 43.5505 92.943C51.9344 91.2488 60.3641 92.3349 68.7567 91.8341C71.4058 91.7489 74.0291 92.543 76.358 94.1351C80.6284 96.8378 84.9174 99.4925 89.5078 101.29C90.2396 101.548 90.9364 101.942 91.5739 102.461C94.5754 105.088 98.2207 106.246 101.152 109.06C102.197 110.068 103.034 109.546 103.176 107.772C103.525 103.513 105.08 99.6879 105.814 95.568C106.228 93.23 107.397 91.2415 108.713 89.6094C110.56 87.2707 112.583 85.1577 114.753 83.299C119.65 79.2154 124.684 75.381 129.678 71.4754C132.22 69.4604 134.928 67.7912 137.757 66.4965C141.895 64.6594 146.017 62.7509 150.1 60.7413C152.813 59.4097 155.658 58.7748 158.494 58.1698C161.453 57.5395 164.471 57.3383 167.446 56.7974C170.918 56.1613 174.394 55.5251 177.824 54.6091C182.737 53.3037 187.753 52.6786 192.781 52.745C199.07 52.8289 205.361 52.7577 211.652 52.5313C212.78 52.4321 213.912 52.6237 214.98 53.0941C216.047 53.5646 217.026 54.3039 217.856 55.2658C219.115 56.8128 220.588 58.0603 222.205 58.9463C223.263 57.8295 224.197 56.5405 224.98 55.1136C228.788 48.6932 233.256 42.9268 238.271 37.9616C239.751 36.5124 241.146 34.9353 242.448 33.2417C245.257 29.6618 248.366 26.4696 251.724 23.7199C256.427 19.8236 261.106 15.8917 265.794 11.9776C267.675 10.4073 269.718 9.15982 271.868 8.26869C275.912 6.59378 279.834 4.33541 284.095 3.64864C288.685 2.91041 293.212 1.59408 297.902 1.66033C304.067 1.75365 310.231 1.68386 316.395 1.45096C321.619 1.27247 326.621 2.70775 331.653 4.14267C335.345 5.15631 338.857 7.01885 342.008 9.63486C342.775 10.1715 343.464 10.8659 344.046 11.6885C346.893 16.3527 349.319 21.338 350.532 27.0233C352.552 36.4052 354.744 45.7673 355.896 55.368C356.467 60.1356 357.167 64.9017 357.089 69.8198C356.971 77.191 357.227 84.57 357.282 91.9453C357.334 99.1057 355.329 105.424 352.015 111.101C351.264 112.348 350.571 113.647 349.939 114.991C348.451 118.072 346.824 121.045 345.067 123.896C340.692 131.37 334.93 136.794 328.764 141.691C327.175 142.95 325.655 144.34 324.12 145.7C324.015 145.783 323.929 145.899 323.872 146.037C323.815 146.175 323.788 146.33 323.795 146.485C323.801 146.641 323.841 146.791 323.91 146.922C323.978 147.052 324.073 147.158 324.185 147.227C328.591 149.63 332.515 153.053 336.552 156.253C338.063 157.403 339.362 158.938 340.364 160.757C341.011 161.92 341.772 162.976 342.63 163.901C346.25 167.9 348.952 172.822 351.844 177.593C353.048 179.603 354.097 181.745 355.34 183.73C358.799 189.205 360.92 195.662 363.901 201.482C364.313 202.277 364.593 203.167 364.725 204.098C365.022 206.303 365.81 208.263 366.498 210.291C368.56 216.201 369.64 222.565 369.672 228.999C369.679 235.903 369.69 242.813 369.907 249.709C370.168 257.601 369.284 265.304 368.227 273.002C367.06 281.495 365.331 289.809 363.665 298.153C363.044 301.188 362.112 304.108 360.892 306.843C359.611 309.74 357.719 312.142 355.419 313.792C354.137 314.754 352.9 315.81 351.718 316.955C348.976 319.486 345.836 321.091 342.611 322.375C336.989 324.611 331.14 325.739 325.349 326.968C321.907 327.699 318.405 328.187 314.954 328.995C313.961 329.176 312.956 329.249 311.952 329.215C303.645 329.309 295.338 329.361 287.038 329.532C284.65 329.576 282.285 328.922 280.13 327.623C276.484 325.504 272.953 323.05 269.316 320.979C264.625 318.305 260.26 314.815 255.406 312.591C254.801 312.361 254.229 312.012 253.71 311.559C251.131 309.023 248.055 307.398 245.499 304.879C242.025 301.44 237.932 299.224 234.471 295.784C233.905 295.194 233.272 295.535 232.996 296.457C231.511 301.439 229.911 306.381 228.581 311.426C226.915 317.729 224.284 323.332 221.525 328.955C219.298 333.498 216.888 337.846 214.463 342.211C212.376 345.965 209.756 349.104 207.373 352.52C207.066 353.03 206.668 353.444 206.209 353.727C203.064 355.266 200.307 357.738 197.063 359.124C191.254 361.612 185.568 364.541 179.838 367.309C174.227 370.016 168.644 372.735 162.864 374.937C155.884 377.606 148.759 379.357 141.697 381.532C140.353 381.913 138.977 382.095 137.597 382.074C128.411 382.178 119.224 382.317 110.042 382.385C105.225 382.535 100.503 380.633 96.6537 376.993C94.8335 375.313 93.1069 373.48 91.4856 371.508C87.8259 366.954 83.5254 363.291 80.0354 358.509C78.0909 355.834 76.052 353.261 74.0887 350.61C73.6547 350.039 73.2982 349.384 73.0331 348.67C70.9679 342.935 69.1786 337.059 68.6529 330.775C68.3378 327.037 67.4257 323.402 67.5213 319.593C67.5432 318.567 67.0622 317.504 66.7873 316.468C66.7531 316.279 66.6868 316.1 66.5928 315.944C66.4989 315.788 66.3794 315.659 66.2425 315.565C66.1055 315.471 65.9542 315.414 65.7986 315.399C65.6431 315.384 65.4869 315.41 65.3405 315.476C60.884 317.055 56.4324 318.639 51.9959 320.282C51.2688 320.533 50.5845 320.945 49.9759 321.498C46.771 324.578 42.928 326.239 39.4434 328.701C35.5507 331.461 31.2012 333.193 26.7506 334.436C21.7369 335.848 16.6059 336.529 11.4604 336.465C4.41517 336.36 -2.63106 336.589 -9.67918 336.651C-11.5641 336.657 -13.4437 336.878 -15.2945 337.311C-17.0278 337.716 -18.7863 337.935 -20.551 337.968C-27.091 338.107 -33.6325 338.116 -40.1684 338.19C-42.0499 338.151 -43.926 337.909 -45.7755 337.466C-50.7589 336.454 -55.5881 334.7 -60.4076 332.947C-66.4992 330.808 -72.0504 326.741 -76.5197 321.14C-78.2018 318.992 -79.304 316.243 -79.6712 313.281C-80.3588 308.497 -80.694 303.647 -80.6727 298.791C-80.6532 290.788 -80.6961 282.781 -80.9445 274.787C-81.1359 268.869 -80.1178 263.272 -78.8266 257.708C-77.1739 250.671 -74.4499 244.428 -69.901 239.603C-69.3371 238.98 -68.8314 238.279 -68.3934 237.515C-67.0989 235.414 -65.4018 233.754 -63.4569 232.685C-57.7057 229.23 -51.8309 226.132 -46.0551 222.743C-45.8233 222.623 -45.5994 222.481 -45.3852 222.318C-38.4538 216.594 -30.7212 213.576 -22.5596 212.111C-19.3313 211.532 -16.2342 210.351 -13.0715 209.474C-7.4393 207.906 -1.79857 206.39 3.85071 204.926C4.96382 204.679 6.09392 204.566 7.22539 204.589C11.8805 204.501 16.5365 204.484 21.192 204.431C23.8284 204.401 26.4552 204.371 29.0551 203.65C30.6053 203.203 32.2867 203.357 34.4574 203.195Z" fill="#F55B1D"/>
</svg>
